<svg xmlns="http://www.w3.org/2000/svg" viewBox="844.3 43.7 40.1 32.8" enable-background="new 844.3 43.7 40.1 32.8"><path fill="#f50" d="M879.5 65.1l4.8-14c.2-.6 0-1-.2-1.4-.4-.6-1.6-.6-1.6-.6h-26.8l-.8-3.6c-.2-.8-.8-1.8-2-1.8h-7.6c-.8 0-1 .8-1 1.6v2c0 .8.2.4 1.2.4h6.4l4.8 20.8c-.8.8-1.2 2.2-1.2 3.2 0 2.4 2 4.6 4.4 4.6s4.2-2.4 4.4-3.6h9.4c.2 1.4 1.8 3.8 4.4 3.8 2.4 0 4.4-2 4.4-4.4s-1.4-4.8-4.4-4.8c-1.2 0-2.6.2-3.4 1.4h-11.6c-.8-1.4-2-1.8-3.2-1.8l-.2-.8h17.8c1.4-.2 1.6-.4 2-1m-21.4 6.8c0-1 .8-1.6 1.6-1.6 1 0 1.6.8 1.6 1.6 0 1-.8 1.6-1.6 1.6s-1.6-.6-1.6-1.6m20 1.6c-1 0-1.6-.8-1.6-1.6s.8-1.6 1.6-1.6c1 0 1.6.8 1.6 1.6.2 1-.6 1.6-1.6 1.6"/></svg>