<svg xmlns="http://www.w3.org/2000/svg" viewBox="-12.7 46.3 48 48" enable-background="new -12.7 46.3 48 48"><ellipse fill="#6d85b4" cx="11.3" cy="70.2" rx="24" ry="24"/><path fill="#5b6f98" d="M11.3 94.2c13.3 0 24-10.7 24-24 0-6.4-2.5-12.3-6.7-16.6l-34.1 33.7c4.3 4.3 10.3 6.9 16.8 6.9"/><path fill="#fff" d="M14.6 54.1c-7.9 1.7-7.8 7.7-7.8 7.7v7.8h-4.8v7.4h4.7v17c1.5.3 3 .3 4.6.3 1.7 0 3.4-.1 5.1-.4v-16.9h7.2l.7-7.4h-7.9v-4.5c0-5.9 8.1-3 8.1-3l1.1-7.5c-.1 0-5.5-1.7-11-.5"/><path d="M6.8 76.9v16.9c1.5.3 3 .4 4.6.4 1.7 0 3.4-.2 5-.5v-16.8h7.2l.7-7.4h-7.9v-3.8l-11.3 11.2h1.7m14-15.5c1.9.1 3.6.7 3.6.7l.7-5-4.3 4.3" fill="#f1f2f2"/></svg>