<?xml version="1.0" encoding="utf-8"?>
<!-- Generator: Adobe Illustrator 15.0.2, SVG Export Plug-In . SVG Version: 6.00 Build 0)  -->
<!DOCTYPE svg PUBLIC "-//W3C//DTD SVG 1.1//EN" "http://www.w3.org/Graphics/SVG/1.1/DTD/svg11.dtd" [
	<!ENTITY ns_flows "http://ns.adobe.com/Flows/1.0/">
	<!ENTITY ns_extend "http://ns.adobe.com/Extensibility/1.0/">
	<!ENTITY ns_ai "http://ns.adobe.com/AdobeIllustrator/10.0/">
	<!ENTITY ns_graphs "http://ns.adobe.com/Graphs/1.0/">
]>
<svg version="1.1" id="Layer_1" xmlns:x="&ns_extend;" xmlns:i="&ns_ai;" xmlns:graph="&ns_graphs;"
	 xmlns="http://www.w3.org/2000/svg" xmlns:xlink="http://www.w3.org/1999/xlink" xmlns:a="http://ns.adobe.com/AdobeSVGViewerExtensions/3.0/"
	 x="0px" y="0px" width="200px" height="34.915px" viewBox="0 0 200 34.915" enable-background="new 0 0 200 34.915"
	 xml:space="preserve">
<g>
	<path fill-rule="evenodd" clip-rule="evenodd" fill="#868686" d="M102.505,3.829c-8.526,0-15.438,6.912-15.438,15.438
		c0,8.526,6.912,15.438,15.438,15.438c4.154,0,7.922-1.645,10.697-4.313l2.983,2.982c0.285,0.285,0.725,0.388,1.122,0.223
		c0.396-0.164,0.635-0.546,0.635-0.95V18.663l-0.016-0.015C117.602,10.409,110.823,3.829,102.505,3.829z M102.505,29.559
		c-5.684,0-10.292-4.608-10.292-10.292s4.607-10.291,10.292-10.291c5.684,0,10.292,4.607,10.292,10.291
		S108.189,29.559,102.505,29.559z"/>
	<path fill-rule="evenodd" clip-rule="evenodd" fill="#868686" d="M139.554,3.829c-4.155,0-7.922,1.645-10.698,4.313l-2.982-2.982
		c-0.286-0.285-0.726-0.387-1.122-0.223s-0.635,0.547-0.635,0.951V19.87l0.014,0.014c0.002,0.067,0.004,0.135,0.008,0.203
		c-0.014,0.067-0.021,0.137-0.021,0.209v12.35c0,0.566,0.463,1.029,1.029,1.029h3.087c0.566,0,1.029-0.463,1.029-1.029v-1.875
		v-5.809v-4.666v-1.022v-0.007c0-5.684,4.607-10.291,10.292-10.291s10.292,4.607,10.292,10.291v1.029v10.475v1.875
		c0,0.566,0.463,1.029,1.029,1.029h3.087c0.566,0,1.029-0.463,1.029-1.029v-12.35c0-0.072-0.008-0.143-0.022-0.21
		c0.014-0.271,0.022-0.544,0.022-0.819C154.992,10.741,148.08,3.829,139.554,3.829z"/>
	<path fill-rule="evenodd" clip-rule="evenodd" fill="#868686" d="M165.283,4.858h-3.088c-0.566,0-1.029,0.464-1.029,1.029v26.758
		c0,0.566,0.463,1.029,1.029,1.029h3.088c0.566,0,1.029-0.463,1.029-1.029V5.888C166.312,5.322,165.849,4.858,165.283,4.858z"/>
	<path fill-rule="evenodd" clip-rule="evenodd" fill="#868686" d="M189.088,19.267L199.759,6.55
		c0.249-0.297,0.319-0.723,0.145-1.097c-0.174-0.374-0.545-0.595-0.933-0.595H195.9c-0.438,0-0.882,0.093-1.305,0.29
		c-0.423,0.196-0.779,0.478-1.06,0.813l-7.806,9.303l-7.807-9.303c-0.281-0.336-0.638-0.617-1.061-0.813
		c-0.422-0.197-0.867-0.29-1.305-0.29h-3.07c-0.387,0-0.758,0.221-0.933,0.595c-0.175,0.374-0.104,0.8,0.144,1.097l10.671,12.717
		l-10.671,12.718c-0.249,0.296-0.319,0.722-0.145,1.097c0.175,0.374,0.546,0.594,0.933,0.594h3.07c0.438,0,0.882-0.092,1.305-0.289
		c0.423-0.197,0.779-0.479,1.061-0.813l7.806-9.303l7.805,9.303c0.281,0.335,0.637,0.616,1.06,0.813s0.867,0.289,1.305,0.289h3.071
		c0.387,0,0.758-0.22,0.933-0.594c0.174-0.375,0.104-0.801-0.145-1.097L189.088,19.267z"/>
	<path fill-rule="evenodd" clip-rule="evenodd" fill="#868686" d="M84.53,26.984c-0.402-0.402-1.054-0.402-1.459-0.004
		c-1.817,1.601-4.198,2.576-6.81,2.576c-5.684,0-10.292-4.607-10.292-10.291v-2.041h5.001c0.395,0,0.795-0.075,1.182-0.235
		s0.723-0.391,1.002-0.669l2.484-2.484c0.285-0.286,0.387-0.726,0.223-1.122c-0.165-0.396-0.547-0.635-0.951-0.635H65.97V1.167
		c0-0.404-0.239-0.787-0.635-0.951c-0.396-0.164-0.836-0.062-1.122,0.224l-2.485,2.484C61.45,3.202,61.22,3.539,61.06,3.926
		s-0.235,0.787-0.235,1.182v14.158c0,8.525,6.912,15.437,15.437,15.438c4.033,0,7.698-1.554,10.449-4.083
		c0.405-0.399,0.405-1.051,0.002-1.453L84.53,26.984z"/>
</g>
<g>
	<linearGradient id="SVGID_1_" gradientUnits="userSpaceOnUse" x1="7.3804" y1="27.9668" x2="40.0926" y2="-9.6644">
		<stop  offset="0" style="stop-color:#73A83D"/>
		<stop  offset="1" style="stop-color:#BACB2F"/>
		<a:midPointStop  offset="0" style="stop-color:#73A83D"/>
		<a:midPointStop  offset="0.5" style="stop-color:#73A83D"/>
		<a:midPointStop  offset="1" style="stop-color:#BACB2F"/>
	</linearGradient>
	<path fill-rule="evenodd" clip-rule="evenodd" fill="url(#SVGID_1_)" d="M19.143,34.158c-0.516,0.517-1.311,0.7-2.027,0.403
		c-0.716-0.296-1.148-0.988-1.148-1.718V5.719c0-1.429-0.544-2.856-1.634-3.945c-1.089-1.09-2.517-1.635-3.945-1.635h38.285
		c0.729,0,1.421,0.433,1.718,1.148c0.296,0.716,0.113,1.511-0.403,2.026L19.143,34.158z"/>
	<linearGradient id="SVGID_2_" gradientUnits="userSpaceOnUse" x1="21.8257" y1="9.4375" x2="-5.86" y2="9.4375">
		<stop  offset="0" style="stop-color:#638831"/>
		<stop  offset="1" style="stop-color:#7DA538"/>
		<a:midPointStop  offset="0" style="stop-color:#638831"/>
		<a:midPointStop  offset="0.5" style="stop-color:#638831"/>
		<a:midPointStop  offset="1" style="stop-color:#7DA538"/>
	</linearGradient>
	<path fill-rule="evenodd" clip-rule="evenodd" fill="url(#SVGID_2_)" d="M1.86,0.139c-0.73,0-1.422,0.433-1.719,1.148
		c-0.296,0.716-0.112,1.511,0.403,2.026l15.422,15.423V5.019c0-1.249-0.476-2.498-1.429-3.451c-0.952-0.952-2.201-1.429-3.45-1.429
		H1.86z"/>
</g>
</svg>
