<svg xmlns="http://www.w3.org/2000/svg" viewBox="-228.5 184.9 60 25" enable-background="new -228.5 184.9 60 25"><g fill="#32599a"><path d="M-206.8 205.8l2.9-17.1h4.7l-3 17.1zm21.5-16.7c-.9-.3-2.4-.7-4.2-.7-4.6 0-7.8 2.3-7.9 5.6 0 2.5 2.3 3.8 4.1 4.6 1.8.8 2.4 1.4 2.4 2.1 0 1.1-1.4 1.7-2.8 1.7-1.9 0-2.8-.3-4.4-.9l-.6-.3-.7 3.8c1.1.5 3.1.9 5.2.9 4.9 0 8.1-2.3 8.1-5.8 0-1.9-1.2-3.4-3.9-4.6-1.6-.8-2.6-1.3-2.6-2.1 0-.7.8-1.5 2.7-1.5 1.5 0 2.6.3 3.5.7l.4.2.7-3.7m11.9-.4h-3.6c-1.1 0-1.9.3-2.4 1.4l-6.9 15.7h4.9s.8-2.1 1-2.6h6c.1.6.6 2.6.6 2.6h4.3l-3.9-17.1m-5.7 11.1c.4-1 1.9-4.8 1.9-4.8s.4-1 .6-1.6l.3 1.5s.9 4.1 1.1 4.9h-3.9"/><path d="M-210.7 188.7l-4.6 11.7-.5-2.4c-.8-2.7-3.5-5.7-6.4-7.2l4.2 14.9h4.9l7.3-17.1h-4.9z"/></g><path fill="#e3a330" d="M-219.5 188.7h-7.5l-.1.4c5.8 1.4 9.7 4.8 11.3 8.9l-1.6-7.9c-.2-1-1.1-1.3-2.1-1.4"/></svg>