<svg xmlns="http://www.w3.org/2000/svg" viewBox="-67.1 181.2 105 28" enable-background="new -67.1 181.2 105 28"><path d="M-53.4 181.2c2.2 0 4.2.5 6 1.4l.9.4-1.3 1.1-1.9-2-3.2 2.9-1.9-2.1-6 5.4 3.8 4.2-1.5 1.3 3.8 4.2-1.5 1.3 5.4 6 3.2-2.9 2.8 3.2c-.5.4-1.1.8-1.8 1.2-2 1.1-4.3 1.8-6.8 1.8-7.6 0-13.7-6.2-13.7-13.7s6.2-13.7 13.7-13.7m-2.5 12.8l3.3-2.9 2.9 3.3-3.3 2.9-2.9-3.3m2.3 5.7l3.3-3 2.9 3.3-3.2 2.9-3-3.2m-4.6-11.2l3.2-3 3 3.3-3.3 2.9-2.9-3.2m6-1.6l2.4-2.2 2.2 2.4-2.4 2.2-2.2-2.4m4.3 10.1l2.4-2.2 2.2 2.4-2.4 2.2-2.2-2.4m2.1 4.9l2.5-2.2 2.2 2.5-2.4 2.2-2.3-2.5m1-11.3l1.7-1.5 1.4 1.7-1.6 1.4-1.5-1.6m-2-4.8l1.6-1.5 1.4 1.6-1.6 1.5-1.4-1.6m4.1 9.6l1.6-1.4 1.5 1.6-1.6 1.5-1.5-1.7m-7.3-3.6l2.5-2.2 2.2 2.5-2.5 2.2-2.2-2.5m48.1-2.2h-.2c-.6-.5-1.2-.7-1.9-.7-1.8 0-2.9 1.2-2.9 3.1v9h1.8v-9c0-1.3.9-1.4 1.2-1.4.2 0 .5.1.8.3.3.3.4.6.4 1.1v9h1.8v-9c0-1.3.9-1.4 1.1-1.4.2 0 .5.1.8.3.3.3.4.6.4 1.1v9h1.8v-9c0-1-.3-1.8-.9-2.4-.5-.5-1.2-.8-2-.8-1 .1-1.7.4-2.2.8m12.8 3.5c-.6-.6-1.6-1.1-2.9-1.1-1.3 0-2.2.5-2.8 1.1-.9 1-1.1 2.4-1.1 3.5s.2 2.5 1.1 3.5c.6.6 1.6 1.1 2.8 1.1 1.3 0 2.3-.5 2.9-1.1.9-1 1.1-2.4 1.1-3.5s-.1-2.5-1.1-3.5m-.7 3.8c0 .8 0 1.8-.6 2.5-.3.3-.7.6-1.6.6-.8 0-1.3-.3-1.5-.6-.6-.7-.6-1.6-.6-2.5v-.8c0-.8 0-1.8.6-2.5.3-.3.7-.6 1.5-.6s1.3.3 1.6.6c.6.7.6 1.6.6 2.5v.8m3.3-4.8h1.5v.8c.4-.3.8-.5 1.3-.7.5-.2.9-.3 1.5-.3.8 0 1.6.2 2.2.9.6.7.7 1.6.7 2.3v6h-1.7v-6.1c0-1.5-.9-1.8-1.7-1.8-.8 0-1.6.3-2.2.9v7h-1.6v-9m15.1 7.2c-.3.2-.6.3-1 .4-.5.2-.9.2-1.4.2-.8 0-1.6-.3-2-.7-.3-.3-.6-.9-.6-2v-.2h5.5v-.4c0-1.4-.1-2.6-.9-3.6-.6-.6-1.5-1.1-2.6-1.1-1.3 0-2.2.5-2.7 1.2-.9 1-1 2.4-1 3.3 0 1 .2 2.5 1.1 3.5.6.7 1.6 1.3 3.1 1.3.7 0 1.4-.1 2.1-.4.4-.2.8-.4 1.1-.5l-.7-1m-5.1-3.7c0-1 .3-1.6.6-1.9.3-.3.7-.6 1.4-.6.5 0 .9.1 1.3.4.6.6.6 1.3.6 1.9v.4h-3.8v-.2h-.1m14.4-3.5l-3.5 10.5c-.1.5-.5 1.2-.8 1.7-.5.5-1.1.7-1.8.7-.5 0-.9-.1-1.4-.4-.3-.2-.6-.4-.7-.6l.8-1c.1.1.3.3.5.4.3.2.6.2.8.2.5 0 .8-.3.9-.5.2-.2.4-.8.5-1.1l.2-.7-3.8-9.4h1.8l2.2 5.6c.2.5.5 1.4.5 1.6h.1c.3-1.1.4-1.4.6-2.1l1.6-5.1h1.5v.2m-68.8 8.4h.1c.6.5 1.2.7 2 .7 1.8 0 2.9-1.3 2.9-3.1v-9h-1.8v9c0 1.3-.9 1.4-1.1 1.4-.2 0-.5 0-.8-.3-.3-.2-.4-.6-.4-1.1v-9h-1.8v9c0 1.3-.9 1.4-1.1 1.4-.2 0-.5 0-.7-.3-.3-.2-.4-.6-.4-1.1v-9h-1.8v9c0 1 .3 1.8.9 2.4.5.5 1.3.8 2 .8.8-.1 1.5-.3 2-.8m13.2-1.2c-.3.1-.6.3-1 .4-.5.2-.9.2-1.4.2-.8 0-1.6-.3-2-.7-.3-.3-.6-.9-.6-2v-.2h5.5v-.4c0-1.4-.1-2.6-.9-3.6-.6-.6-1.5-1-2.6-1-1.2 0-2.1.5-2.7 1.1-.9 1.1-1 2.5-1 3.3 0 1 .1 2.5 1 3.5.6.7 1.6 1.3 3.1 1.3.7 0 1.4-.1 2.1-.4.4-.1.8-.4 1.1-.5l-.6-1m-5-3.7c0-1 .3-1.6.6-1.9.2-.3.6-.6 1.3-.6.5 0 .9.1 1.3.5.6.5.6 1.2.6 1.9v.4h-3.8v-.3m13.1-2.8c-.6-.6-1.5-.9-2.5-.9l-1.2.1-.9.3v-3.5h-1.6v11.4c.9.6 2.1.9 3.3.9.9 0 2.2-.2 3.1-1.4.7-1 .9-2.2.9-3.3.2-.9.1-2.5-1.1-3.6m-2.8.3c.6 0 1.3.2 1.7.6.6.6.6 1.5.6 2.3v.8c0 1.5-.3 2.1-.5 2.5-.3.3-.8.7-1.7.7-.3 0-.7-.1-1-.2-.2-.1-.5-.2-.7-.4v-5.9" fill="#1a5eab" fill-rule="evenodd"/></svg>