<svg xmlns="http://www.w3.org/2000/svg" viewBox="-144.6 179.9 60 35" enable-background="new -144.6 179.9 60 35"><path fill="#e60019" d="M-109 197.4c0 9.5-7.7 17.2-17.2 17.2s-17.2-7.7-17.2-17.2 7.7-17.2 17.2-17.2 17.2 7.7 17.2 17.2"/><path d="M-103.1 180.2c-4.4 0-8.5 1.7-11.5 4.4-.6.6-1.2 1.2-1.7 1.8h3.5c.5.6.9 1.2 1.3 1.8h-6.1c-.4.6-.7 1.2-1 1.8h8.1c.3.6.5 1.2.7 1.8h-9.5c-.2.6-.4 1.2-.5 1.8h10.5c.3 1.2.4 2.4.4 3.6 0 1.9-.3 3.7-.9 5.5h-9.5l.7 1.8h8.1c-.3.6-.6 1.2-1 1.8h-6.1c.4.6.8 1.2 1.3 1.8h3.5c-.5.6-1.1 1.3-1.7 1.8 3 2.8 7.1 4.4 11.5 4.4 9.5 0 17.2-7.7 17.2-17.2-.1-9.2-7.8-16.9-17.3-16.9m14.9 26.7c0-.3.2-.6.6-.6.3 0 .6.2.6.6 0 .3-.2.6-.6.6-.4 0-.6-.3-.6-.6m.5.4c.2 0 .4-.2.4-.4s-.2-.4-.4-.4-.4.2-.4.4c0 .3.2.4.4.4m0-.1h-.1v-.5h.3l.1.1c0 .1 0 .1-.1.1l.1.2h-.1l-.1-.2h-.1v.3m0-.3h.1v-.1h-.2v.1h.1" fill="#f7b00b"/><path d="M-130.1 199.2h-.4c-1.1 0-1.6.4-1.6 1.1 0 .4.3.7.7.7.7 0 1.2-.7 1.3-1.8m1.3 3.2h-1.5v-.7c-.5.6-1.1.9-2 .9-1 0-1.7-.8-1.7-1.9 0-1.7 1.2-2.7 3.3-2.7.2 0 .5 0 .8.1.1-.2.1-.3.1-.5 0-.5-.3-.6-1.2-.6-.9 0-1.7.2-2 .3 0-.1.3-1.6.3-1.6.9-.3 1.5-.4 2.2-.4 1.6 0 2.4.7 2.4 2.1 0 .4-.1.8-.2 1.4-.1.9-.4 3.1-.5 3.6m-5.9 0h-1.9l1.1-6.7-2.4 6.7h-1.3l-.1-6.7-1.2 6.7h-1.7l1.4-8.7h2.7l.2 4.9 1.6-4.9h3l-1.4 8.7m33.9-3.2h-.4c-1.1 0-1.6.4-1.6 1.1 0 .4.3.7.7.7.7 0 1.3-.7 1.3-1.8m1.4 3.2h-1.5v-.7c-.5.6-1.1.9-2 .9-1 0-1.7-.8-1.7-1.9 0-1.7 1.2-2.7 3.3-2.7.2 0 .5 0 .8.1.1-.2.1-.3.1-.5 0-.5-.3-.6-1.2-.6-.9 0-1.7.2-2 .3 0-.1.3-1.6.3-1.6.9-.3 1.5-.4 2.2-.4 1.6 0 2.4.7 2.4 2.1 0 .4-.1.8-.2 1.4-.1.9-.5 3.1-.5 3.6m-21.1-.1c-.5.2-.9.2-1.3.2-1 0-1.5-.5-1.5-1.6 0-.3.1-1.1.3-1.9.1-.7.8-4.8.8-4.8h1.9l-.2 1.1h1.1l-.3 1.7h-1.1c-.2 1.3-.5 3-.5 3.2 0 .4.2.5.6.5.2 0 .4 0 .5-.1l-.3 1.7m5.7-.1c-.6.2-1.2.3-1.9.3-2.1 0-3.2-1.1-3.2-3.2 0-2.4 1.4-4.2 3.2-4.2 1.5 0 2.5 1 2.5 2.6 0 .5-.1 1-.2 1.7h-3.7c-.1 1 .5 1.5 1.6 1.5.7 0 1.3-.1 1.9-.4l-.2 1.7m-1.1-4.2c0-.1.2-1.3-.9-1.3-.6 0-1 .4-1.2 1.3h2.1m-11.8-.5c0 .9.4 1.5 1.4 2 .8.4.9.5.9.8 0 .4-.3.6-1.1.6-.6 0-1.1-.1-1.7-.3 0 0-.2 1.6-.3 1.6.4.1.8.2 1.9.2 2 0 2.9-.7 2.9-2.4 0-1-.4-1.5-1.3-2-.8-.4-.9-.4-.9-.8s.3-.6.9-.6c.4 0 .9 0 1.3.1l.3-1.6c-.5-.1-1.2-.1-1.6-.1-2 .2-2.7 1.2-2.7 2.5m21.9-2.2c.5 0 1 .1 1.7.5l.3-1.9c-.3-.1-1.2-.7-2-.7-1.2 0-2.3.6-3 1.6-1.1-.4-1.5.4-2.1 1.1l-.5.1.1-.7h-1.7c-.2 2.2-.6 4.4-1 6.6l-.1.5h1.9c.3-2 .5-3.3.6-4.2l.7-.4c.1-.4.4-.5 1.1-.5-.1.5-.1.9-.1 1.5 0 2.3 1.3 3.8 3.3 3.8.5 0 1-.1 1.6-.3l.3-2c-.6.3-1.1.4-1.6.4-1.1 0-1.7-.8-1.7-2.1-.1-1.9.8-3.3 2.2-3.3m15.8-1.6l-.4 2.5c-.5-.7-1.1-1.2-1.8-1.2-.9 0-1.8.7-2.4 1.8l-1.6-.4c.1-.6.1-.9.1-1.1h-1.7c-.2 2.2-.6 4.4-1 6.6l-.1.5h1.9c.3-1.6.4-3 .6-4.1.6-.6 1-1.1 1.6-1-.3.7-.5 1.5-.5 2.3 0 1.8.9 2.9 2.2 2.9.7 0 1.2-.2 1.7-.8l-.1.7h1.8l1.4-8.7h-1.7m-2.3 7.1c-.6 0-1-.5-1-1.4 0-1.4.6-2.4 1.4-2.4.6 0 1 .5 1 1.4.1 1.4-.6 2.4-1.4 2.4" fill="#002c6f"/><path d="M-134.2 201.9h-1.9l1.1-6.7-2.4 6.7h-1.3l-.1-6.7-1.1 6.7h-1.8l1.5-8.7h2.7v5.4l1.8-5.4h2.9l-1.4 8.7m4.6-3.2h-.4c-1.1 0-1.6.4-1.6 1.1 0 .4.3.7.7.7.7 0 1.3-.7 1.3-1.8m1.3 3.2h-1.5v-.7c-.5.6-1.1.9-2 .9-1 0-1.7-.8-1.7-1.9 0-1.7 1.2-2.7 3.3-2.7.2 0 .5 0 .8.1.1-.2.1-.3.1-.5 0-.5-.3-.6-1.2-.6-.9 0-1.7.2-2 .3 0-.1.3-1.6.3-1.6.9-.3 1.5-.4 2.2-.4 1.6 0 2.4.7 2.4 2.1 0 .4-.1.8-.2 1.4-.1.8-.4 3-.5 3.6m25-8.5l-.3 1.9c-.7-.3-1.1-.5-1.7-.5-1.4 0-2.4 1.3-2.4 3.3 0 1.3.7 2.1 1.7 2.1.5 0 1-.1 1.6-.4l-.3 2c-.7.2-1.1.3-1.6.3-2 0-3.3-1.4-3.3-3.8 0-3.1 1.7-5.3 4.2-5.3.9-.1 1.9.3 2.1.4m3 5.3h-.4c-1.1 0-1.6.4-1.6 1.1 0 .4.3.7.7.7.8 0 1.3-.7 1.3-1.8m1.4 3.2h-1.5v-.7c-.5.6-1.1.9-2 .9-1 0-1.7-.8-1.7-1.9 0-1.7 1.2-2.7 3.3-2.7.2 0 .5 0 .8.1.1-.2.1-.3.1-.5 0-.5-.3-.6-1.2-.6-.9 0-1.7.2-2 .3 0-.1.3-1.6.3-1.6.9-.3 1.5-.4 2.2-.4 1.6 0 2.4.7 2.4 2.1 0 .4-.1.8-.2 1.4-.1.8-.5 3-.5 3.6m-21.1-.1c-.5.2-.9.2-1.3.2-1 0-1.5-.5-1.5-1.6 0-.3.1-1.1.3-1.9.1-.7.8-4.8.8-4.8h1.9l-.2 1.1h1l-.3 1.7h-1c-.2 1.3-.5 3-.5 3.2 0 .4.2.5.6.5.2 0 .4 0 .5-.1l-.3 1.7m5.7-.1c-.6.2-1.3.3-1.9.3-2.1 0-3.2-1.1-3.2-3.2 0-2.4 1.4-4.2 3.2-4.2 1.5 0 2.5 1 2.5 2.6 0 .5-.1 1-.2 1.7h-3.7c-.1 1 .5 1.5 1.6 1.5.7 0 1.3-.1 1.9-.4l-.2 1.7m-1-4.2c0-.1.2-1.3-.9-1.3-.6 0-1 .5-1.2 1.3h2.1m-11.8-.5c0 .9.4 1.5 1.4 2 .8.4.9.5.9.8 0 .4-.3.6-1.1.6-.6 0-1.1-.1-1.7-.3 0 0-.2 1.6-.3 1.6.4.1.8.2 1.9.2 2 0 2.9-.7 2.9-2.4 0-1-.4-1.5-1.3-2-.8-.4-.9-.4-.9-.8s.3-.6.9-.6c.4 0 .9 0 1.3.1l.3-1.6c-.5-.1-1.2-.1-1.6-.1-2 .1-2.7 1.2-2.7 2.5m38.1 4.9h-1.8l.1-.7c-.5.5-1 .8-1.7.8-1.4 0-2.2-1.2-2.2-2.9 0-2.4 1.4-4.3 3-4.3.7 0 1.3.3 1.8 1l.4-2.5h1.8l-1.4 8.6m-2.8-1.7c.9 0 1.5-1 1.5-2.4 0-.9-.3-1.4-1-1.4-.8 0-1.4 1-1.4 2.4 0 1 .3 1.4.9 1.4m-5.4-5.4c-.2 2.2-.6 4.4-1 6.6l-.1.5h1.9c.7-4.3.8-5.2 1.9-5.1.2-.9.5-1.7.7-2.1-.8-.2-1.2.3-1.8 1.1l.1-1.1h-1.7v.1m-15.4 0c-.2 2.2-.6 4.4-1 6.6l-.1.5h1.9c.7-4.3.8-5.2 1.9-5.1.2-.9.5-1.7.7-2.1-.8-.2-1.2.3-1.8 1.1l.1-1.1h-1.7v.1m24.4 6.5c0-.3.2-.6.6-.6.3 0 .6.2.6.6 0 .3-.2.6-.6.6-.4 0-.6-.3-.6-.6m.5.4c.2 0 .4-.2.4-.4s-.2-.4-.4-.4-.4.2-.4.4.2.4.4.4m0-.1h-.1v-.5h.3l.1.1c0 .1 0 .1-.1.1l.1.2h-.1l-.1-.2h-.1v.3m0-.3h.1v-.2h-.2v.2h.1" fill="#fff"/></svg>