<svg xmlns="http://www.w3.org/2000/svg" viewBox="-12.7 -5.2 48 48" enable-background="new -12.7 -5.2 48 48"><path fill="#6995c3" d="M35.3 18.8c0-13.3-10.7-24-24-24s-24 10.7-24 24 10.7 24 24 24 24-10.8 24-24"/><path fill="#6088b1" d="M11.3 42.8c13.3 0 24-10.7 24-24 0-6.4-2.5-12.2-6.6-16.5l-34.1 33.7c4.4 4.2 10.2 6.8 16.7 6.8z"/><path fill="#fff" d="M7.1 20.6h3.1l10.6-10.5c-.1-.8-.3-1.6-.7-2.2-.5-.9-1.3-1.7-2.3-2.2-.9-.5-2-.8-3-1-1.1-.2-2.7-.2-4.8-.2h-10.1v26.2l7.1-7v-3.1zm0-10.9h3.4c.6 0 1.2.1 1.7.3.5.2.9.6 1.1 1.1.2.5.4 1 .4 1.4 0 .6-.1 1.2-.3 1.6-.2.5-.6.8-1.2 1.1-.5.2-1 .4-1.5.4h-3.6v-5.9"/><path d="M7.1 27.8h4.3c.7 0 1.4-.2 2.2-.5.7-.3 1.1-.7 1.4-1.2.3-.5.5-1.2.5-1.8 0-.9-.2-1.6-.5-2.1-.4-.5-.9-.9-1.6-1.1-.4-.2-1-.3-1.8-.3h-1.3l-3.1 3v4zm21.7-25.5l-8 7.9.1.9c0 1.4-.3 2.6-1 3.7s-1.7 1.9-2.9 2.4v.2c1.8.4 3.2 1.1 4.2 2.3 1.1 1.1 1.6 2.7 1.6 4.6 0 1.4-.3 2.7-.8 3.7-.5 1.1-1.3 2-2.2 2.7-1.1.8-2.2 1.4-3.5 1.8-1.3.3-3 .5-4.9.5h-11.5v-2.3l-5.3 5.3c4.3 4.2 10.2 6.8 16.7 6.8 13.3 0 24-10.7 24-24 0-6.4-2.5-12.2-6.5-16.5" fill="#6088b1"/><path fill="#f1f2f2" d="M11.4 33c2 0 3.6-.2 4.9-.5 1.3-.4 2.5-1 3.5-1.8.9-.7 1.6-1.6 2.2-2.7.5-1.1.8-2.3.8-3.7 0-1.9-.5-3.5-1.6-4.6-1.1-1.1-2.5-1.9-4.2-2.3v-.2c1.2-.5 2.2-1.3 2.9-2.4.7-1.1 1-2.3 1-3.7l-.1-.9-10.6 10.4h1.3c.8 0 1.4.1 1.8.3.7.3 1.3.6 1.6 1.1.4.5.5 1.2.5 2.1 0 .7-.2 1.3-.5 1.8s-.8 1-1.4 1.2c-.7.3-1.5.5-2.2.5h-4.2v-4.1l-7.1 7v2.5h11.4"/></svg>