<svg xmlns="http://www.w3.org/2000/svg" viewBox="-69.4 -5.2 48 48" enable-background="new -69.4 -5.2 48 48"><path fill="#df5745" d="M-21.4 18.8c0-13.3-10.7-24-24-24s-24 10.7-24 24 10.7 24 24 24 24-10.8 24-24"/><path fill="#c64c3c" d="M-45.4 42.8c13.3 0 24-10.7 24-24 0-6.4-2.5-12.2-6.6-16.5l-34.1 33.7c4.3 4.2 10.2 6.8 16.7 6.8"/><path d="M-38.2 21.9c-.2 0-.4.1-.4.3 0 .1-.1 0-.1.6v1h1v-1c0-.5 0-.5-.1-.5-.1-.3-.2-.4-.4-.4m-4.8.3c-.2 0-.4.1-.4.3 0 .1-.1.3-.1.9v1.8c0 .6 0 .8.1.9.1.2.2.3.4.3s.4-.1.4-.4c0-.1.1-.3.1-.9v-1.8c0-.6 0-.8-.1-.9 0 0-.2-.2-.4-.2m8.1-2.6c-.2-1.6-1.6-3-3.3-3.1-4.8-.2-9.6-.2-14.4 0-1.6.1-3.1 1.5-3.3 3.1-.2 2.6-.2 5.2 0 7.8.2 1.6 1.6 3 3.3 3.1 4.8.2 9.6.2 14.4 0 1.6-.1 3.1-1.5 3.3-3.1.2-2.7.2-5.2 0-7.8m-15 .5h-1.4v7.7h-1.4v-7.7h-1.3v-1.5h4.2v1.5zm4 7.7h-1.4v-.4l-.4-.1c-.1.2-.2.4-.4.5-.1.1-.3.1-.5.1s-.4 0-.5-.1c-.1-.1-.2-.2-.3-.4-.1-.2-.1-.4-.1-.6v-6h1.4v5.5c.1.2.2.3.4.3s.4-.1.5-.3v-5.4h1.4l-.1 6.9m4.8-5v3.6s0 .4-.1.7l-.3.6c-.2.2-.4.2-.6.2-.2 0-.3 0-.5-.1s-.3-.3-.4-.5l-.3-.5-.1.6-.1.4h-1.3v-9.1h1.4v3.3l.4-.6c.1-.2.3-.3.4-.4s.3-.1.5-.1.4 0 .5.1l.3.3c.1.2.1.3.1.5.2.6.1 1 .1 1m4.7 1.7h-2.3v1.5c0 .5 0 .6.1.7.1.2.2.3.4.3s.4-.1.5-.3c.1-.2.1-.4.1-.8v-.7h1.3v.3c0 .4 0 .8-.1 1 0 .2-.1.5-.3.7-.1.2-.3.4-.6.5-.2.1-.5.2-.9.2-.3 0-.7-.1-.9-.2-.3-.1-.5-.3-.6-.5l-.3-.7c-.1-.3-.1-.7-.1-.9v-2.1c0-.9.1-1.3.2-1.7.1-.3.3-.6.6-.7.3-.2.6-.3 1-.3.5 0 .8.1 1.1.3.3.2.5.5.6.8.1.4.2 1.2.2 1.8v.8m-13.8-13.9l-1.1-3.7h-1l1.5 5.2v3.7h1.2v-3.7l1.3-5.2h-1c-.3 1.4-.7 2.7-.9 3.7m5.6-.6c-.1-.2-.3-.4-.6-.5-.3-.1-.6-.2-1-.2-.5 0-.8.1-1.1.3-.3.2-.5.5-.6.8-.1.4-.2.9-.2 1.6v1.3c0 .6 0 1.1.1 1.4.1.3.2.5.3.7.1.2.3.3.6.4.3.1.6.2 1 .2.3 0 .6-.1.9-.2.2-.1.4-.3.6-.5.2-.2.3-.5.3-.8.1-.3.1-.8.1-1.5v-1.2c0-.5 0-.9-.1-1.2l-.3-.6m-1.1 4.1c0 .5 0 .7-.1.8-.1.2-.2.3-.4.3s-.4-.1-.4-.4c0-.1-.1-.3-.1-.8v-2.8c0-.6 0-.8.1-.9.1-.2.2-.3.4-.3s.4.1.4.3c0 .1.1.3.1.9v2.9m4.9-4.9v5.3c0 .1-.1.4-.5.4-.3 0-.4-.3-.5-.4 0-.1-.1-.1-.1-.9v-4.4h-1.4v5.7c0 .2.1.4.1.5.1.2.2.3.3.4.1.1.3.2.6.2.2 0 .4-.1.5-.2.2-.1.3-.3.4-.5l.4.2v.3h1.4v-6.6h-1.2" fill="#fff"/><path fill="#f1f2f2" d="M-34.9 19.6c-.2-1.6-1.6-3-3.3-3.1-1.4-.1-2.7-.1-4.1-.1l-2.3 2.3h1.1v3.3l.4-.6c.1-.2.3-.3.4-.4s.3-.1.5-.1.4 0 .5.1l.3.3c.1.2.1.3.1.5.1.8 0 1.1 0 1.1v3.6s0 .4-.1.7l-.3.6c-.2.2-.4.2-.6.2-.2 0-.3 0-.5-.1s-.3-.3-.4-.5l-.3-.5-.1.6-.1.4h-1.3v-8.9l-2 2h.9v6.9h-1.4v-.4l-.4-.1c-.1.2-.2.4-.4.5-.1.1-.3.1-.5.1s-.4 0-.5-.1c-.1-.1-.2-.2-.3-.4-.1-.2-.1-.4-.1-.6v-3.2l-1.6 1.6v2.5h-1.4v-1.1l-2.5 2.5c.6.8 1.5 1.3 2.5 1.4 4.8.2 9.6.2 14.4 0 1.6-.1 3.1-1.5 3.3-3.1.3-2.8.3-5.3.1-7.9m-1.5 4.9h-2.3v1.5c0 .5 0 .6.1.7.1.2.2.3.4.3s.4-.1.5-.3c.1-.2.1-.4.1-.8v-.7h1.3v.3c0 .4 0 .8-.1 1 0 .2-.1.5-.3.7-.1.2-.3.4-.6.5-.2.1-.5.2-.9.2-.3 0-.7-.1-.9-.2-.3-.1-.5-.3-.6-.5l-.3-.7c-.1-.3-.1-.7-.1-.9v-2.1c0-.9.1-1.3.2-1.7.1-.3.3-.6.6-.7.3-.2.6-.3 1-.3.5 0 .8.1 1.1.3.3.2.5.5.6.8.1.4.2 1.2.2 1.8v.8m-1.8-2.6c-.2 0-.4.1-.4.3 0 .1-.1 0-.1.6v1h1v-1c0-.5 0-.5-.1-.5-.1-.3-.2-.4-.4-.4m-9.6 4.7c.2 0 .4-.1.5-.3v-4.9l-1 1v4c.1.1.3.2.5.2m6.6-11.3l.4.2v.3h1.4v-2.3l-2.4 2.4c.1 0 .2-.1.2-.1.1-.1.3-.2.4-.5m-1.8 11.2c.2 0 .4-.1.4-.4 0-.1.1-.3.1-.9v-1.8c0-.6 0-.8-.1-.9-.1-.2-.2-.3-.4-.3s-.4.1-.4.3c0 .1-.1.3-.1.9v1.8c0 .6 0 .8.1.9.1.3.2.4.4.4"/></svg>